<svg xmlns="http://www.w3.org/2000/svg" xmlns:xlink="http://www.w3.org/1999/xlink" fill="none" version="1.1" width="840" height="840" viewBox="0 0 840 840"><defs><linearGradient x1="0" y1="0" x2="1" y2="1" id="master_svg0_312_1827"><stop offset="0%" stop-color="#FF514F" stop-opacity="0.9200000166893005"/><stop offset="100%" stop-color="#FFBD00" stop-opacity="0.8199999928474426"/></linearGradient></defs><g><g style="mix-blend-mode:passthrough"><rect x="0" y="0" width="839.9999389648438" height="839.9999389648438" rx="419.9999694824219" fill="#FFFFFF" fill-opacity="1"/></g><g style="mix-blend-mode:passthrough"><ellipse cx="420" cy="420" rx="420" ry="420" fill="url(#master_svg0_312_1827)" fill-opacity="0.8600000143051147"/></g><g style="mix-blend-mode:passthrough" transform="matrix(0.9999999403953552,0,0,0.9999999403953552,0.000025033950805664062,0.000025033950805664062)"><path d="M840,420C840,475.6955,829.3430000000001,529.271,808.029,580.727C786.716,632.183,756.3679999999999,677.602,716.985,716.985C677.602,756.3679999999999,632.183,786.716,580.727,808.029C529.271,829.3430000000001,475.6955,840,420,840L420,420L840,420Z" fill="#FFEDD9" fill-opacity="1"/></g><g style="mix-blend-mode:passthrough"><path d="M840,450L840,390L390,390L390,840L450,840L450,450L840,450Z" fill-rule="evenodd" fill="#FFFFFF" fill-opacity="1"/></g></g></svg>