<svg xmlns="http://www.w3.org/2000/svg" xmlns:xlink="http://www.w3.org/1999/xlink" fill="none" version="1.1" width="1080" height="1080" viewBox="0 0 1080 1080"><defs><clipPath id="master_svg0_316_0440"><rect x="0" y="0" width="1080" height="1080" rx="0"/></clipPath><linearGradient x1="0" y1="0" x2="1" y2="1" id="master_svg1_312_1827"><stop offset="0%" stop-color="#FF514F" stop-opacity="0.9200000166893005"/><stop offset="100%" stop-color="#FFBD00" stop-opacity="0.8199999928474426"/></linearGradient></defs><g style="mix-blend-mode:passthrough" clip-path="url(#master_svg0_316_0440)"><rect x="0" y="0" width="1080" height="1080" rx="0" fill="#FFFFFF" fill-opacity="1"/><g style="mix-blend-mode:passthrough"><ellipse cx="540" cy="540" rx="420" ry="420" fill="url(#master_svg1_312_1827)" fill-opacity="0.8600000143051147"/></g><g style="mix-blend-mode:passthrough" transform="matrix(0.9999999403953552,0,0,0.9999999403953552,0.00003218650817871094,0.00003218650817871094)"><path d="M960,540C960,595.6955,949.3430000000001,649.271,928.029,700.727C906.716,752.183,876.3679999999999,797.602,836.985,836.985C797.602,876.3679999999999,752.183,906.716,700.727,928.029C649.271,949.3430000000001,595.6955,960,540,960L540,540L960,540Z" fill="#FFEDD9" fill-opacity="1"/></g><g style="mix-blend-mode:passthrough"><path d="M960,570L960,510L510,510L510,960L570,960L570,570L960,570Z" fill-rule="evenodd" fill="#FFFFFF" fill-opacity="1"/></g></g></svg>