<svg xmlns="http://www.w3.org/2000/svg" xmlns:xlink="http://www.w3.org/1999/xlink" fill="none" version="1.1" width="6" height="11.000000953674316" viewBox="0 0 6 11.000000953674316"><g style="mix-blend-mode:passthrough" transform="matrix(0,1,-1,0,6,-6)"><path d="M10.944410000000001,0.21967C11.25126,-0.0732233,11.74874,-0.0732233,12.055589999999999,0.21967C12.055589999999999,0.21967,16.7699,4.71967,16.7699,4.71967C17.076700000000002,5.01257,17.076700000000002,5.48743,16.7699,5.78033C16.463,6.07322,15.96553,6.07322,15.65871,5.78033C15.65871,5.78033,11.5,1.81066,11.5,1.81066C11.5,1.81066,7.3413,5.78033,7.3413,5.78033C7.03446,6.07322,6.536971,6.07322,6.23013,5.78033C5.9232899,5.48743,5.9232899,5.01257,6.23013,4.71967C6.23013,4.71967,10.944410000000001,0.21967,10.944410000000001,0.21967C10.944410000000001,0.21967,10.944410000000001,0.21967,10.944410000000001,0.21967Z" fill-rule="evenodd" fill="#6C757D" fill-opacity="1"/></g></svg>